HIERARCHY
ROOT Hips
{
	OFFSET 0.000000 0.000000 0.000000
	CHANNELS 6 Xposition Yposition Zposition Zrotation Yrotation Xrotation 
	JOINT LHipJoint
	{
		OFFSET 0.000000 0.000000 0.000000
		CHANNELS 3 Zrotation Yrotation Xrotation
		JOINT LeftUpLeg
		{
			OFFSET 1.363060 -1.794630 0.839290
			CHANNELS 3 Zrotation Yrotation Xrotation
			JOINT LeftLeg
			{
				OFFSET 2.448110 -6.726130 0.000000
				CHANNELS 3 Zrotation Yrotation Xrotation
				JOINT LeftFoot
				{
					OFFSET 2.562200 -7.039590 0.000000
					CHANNELS 3 Zrotation Yrotation Xrotation
					JOINT LeftToeBase
					{
						OFFSET 0.157640 -0.433110 2.322550
						CHANNELS 3 Zrotation Yrotation Xrotation
						End Site
						{
							OFFSET 0.000000 0.000000 0.000000
						}
					}
				}
			}
		}
	}
	JOINT RHipJoint
	{
		OFFSET 0.000000 0.000000 0.000000
		CHANNELS 3 Zrotation Yrotation Xrotation
		JOINT RightUpLeg
		{
			OFFSET -1.305520 -1.794630 0.839290
			CHANNELS 3 Zrotation Yrotation Xrotation
			JOINT RightLeg
			{
				OFFSET -2.542530 -6.985550 0.000000
				CHANNELS 3 Zrotation Yrotation Xrotation
				JOINT RightFoot
				{
					OFFSET -2.568260 -7.056230 0.000000
					CHANNELS 3 Zrotation Yrotation Xrotation
					JOINT RightToeBase
					{
						OFFSET -0.164730 -0.452590 2.363150
						CHANNELS 3 Zrotation Yrotation Xrotation
						End Site
						{
							OFFSET 0.000000 0.000000 0.000000
						}
					}
				}
			}
		}
	}
	JOINT LowerBack
	{
		OFFSET 0.000000 0.000000 0.000000
		CHANNELS 3 Zrotation Yrotation Xrotation
		JOINT Spine
		{
			OFFSET 0.028270 2.035590 -0.193380
			CHANNELS 3 Zrotation Yrotation Xrotation
			JOINT Spine1
			{
				OFFSET 0.056720 2.048850 -0.042750
				CHANNELS 3 Zrotation Yrotation Xrotation
				JOINT Neck
				{
					OFFSET 0.000000 0.000000 0.000000
					CHANNELS 3 Zrotation Yrotation Xrotation
					JOINT Neck1
					{
						OFFSET -0.054170 1.746240 0.172020
						CHANNELS 3 Zrotation Yrotation Xrotation
						JOINT Head
						{
							OFFSET 0.104070 1.761360 -0.123970
							CHANNELS 3 Zrotation Yrotation Xrotation
							End Site
							{
								OFFSET 0.000000 0.000000 0.000000
							}
						}
					}
				}
				JOINT LeftShoulder
				{
					OFFSET 0.000000 0.000000 0.000000
					CHANNELS 3 Zrotation Yrotation Xrotation
					JOINT LeftArm
					{
						OFFSET 3.362410 1.200890 -0.311210
						CHANNELS 3 Zrotation Yrotation Xrotation
						JOINT LeftForeArm
						{
							OFFSET 4.983000 -0.000000 -0.000000
							CHANNELS 3 Zrotation Yrotation Xrotation
							JOINT LeftHand
							{
								OFFSET 3.483560 -0.000000 -0.000000
								CHANNELS 3 Zrotation Yrotation Xrotation
								JOINT LeftFingerBase
								{
									OFFSET 0.000000 0.000000 0.000000
									CHANNELS 3 Zrotation Yrotation Xrotation
									JOINT LeftHandIndex1
									{
										OFFSET 0.715260 -0.000000 -0.000000
										CHANNELS 3 Zrotation Yrotation Xrotation
										End Site
										{
											OFFSET 0.000000 0.000000 0.000000
										}
									}
								}
								JOINT LThumb
								{
									OFFSET 0.000000 0.000000 0.000000
									CHANNELS 3 Zrotation Yrotation Xrotation
									End Site
									{
										OFFSET 0.000000 0.000000 0.000000
									}
								}
							}
						}
					}
				}
				JOINT RightShoulder
				{
					OFFSET 0.000000 0.000000 0.000000
					CHANNELS 3 Zrotation Yrotation Xrotation
					JOINT RightArm
					{
						OFFSET -3.136600 1.374050 -0.404650
						CHANNELS 3 Zrotation Yrotation Xrotation
						JOINT RightForeArm
						{
							OFFSET -5.241900 -0.000000 -0.000000
							CHANNELS 3 Zrotation Yrotation Xrotation
							JOINT RightHand
							{
								OFFSET -3.444170 -0.000000 -0.000000
								CHANNELS 3 Zrotation Yrotation Xrotation
								JOINT RightFingerBase
								{
									OFFSET 0.000000 0.000000 0.000000
									CHANNELS 3 Zrotation Yrotation Xrotation
									JOINT RightHandIndex1
									{
										OFFSET -0.622530 -0.000000 -0.000000
										CHANNELS 3 Zrotation Yrotation Xrotation
										End Site
										{
											OFFSET 0.000000 0.000000 0.000000
										}
									}
								}
								JOINT RThumb
								{
									OFFSET 0.000000 0.000000 0.000000
									CHANNELS 3 Zrotation Yrotation Xrotation
									End Site
									{
										OFFSET 0.000000 0.000000 0.000000
									}
								}
							}
						}
					}
				}
			}
		}
	}
}
MOTION
Frames: 4
Frame Time: 0.016667
-1.606391 17.284422 24.287088 -0.117004 23.374415 -15.589277 -33.171636 42.364951 -3.280476 -21.159277 20.374859 -22.905919 -96.382725 55.185280 -69.196634 -38.058261 49.904606 -58.792156 0.000000 0.000000 0.000000 1.879437 -61.016405 -8.329650 38.015599 42.511657 -20.102497 42.022082 -28.798531 62.557225 35.522914 7.049178 -83.546775 0.000000 0.000000 0.000000 14.349397 3.735589 29.032698 -3.105773 -0.673069 11.639646 -0.304188 -17.702912 6.089006 -2.260710 7.627991 -15.752001 -1.441098 2.331723 -58.908977 0.000000 0.000000 0.000000 -9.465111 -38.172209 -27.902922 29.482577 -21.524081 16.185327 -4.914352 26.988703 -3.230446 -11.178701 -7.807254 -1.634942 -11.322934 -7.816949 0.000000 0.000000 0.000000 0.000000 0.000000 0.000000 0.000000 0.833760 -7.682625 8.138040 85.399487 8.117860 -26.966817 162.425889 55.471483 168.708266 -14.737600 19.863327 -5.883273 -20.385301 16.332507 0.000000 0.000000 0.000000 0.000000 0.000000 0.000000 0.000000 
-1.631491 17.303796 24.465300 1.104952 21.281447 -13.598568 -31.249052 37.299112 2.571158 -17.538715 12.458033 -20.754609 -82.826271 37.982309 -63.910671 -42.676459 71.048561 -79.584680 0.000000 0.000000 0.000000 2.992174 -57.145471 -9.700890 36.462898 42.735968 -21.840097 43.923602 -29.561312 62.417692 35.702873 7.705876 -84.802300 0.000000 0.000000 0.000000 13.075096 4.942334 28.525442 -3.557624 -0.199690 10.857120 -0.064805 -17.314369 5.799056 -2.223398 7.769984 -15.574617 -1.315013 2.497676 -58.502548 0.000000 0.000000 0.000000 -9.137589 -38.045802 -28.515654 29.268623 -21.311648 15.327871 -3.338775 27.720664 -3.126421 -11.461961 -7.377454 -1.581800 -11.603948 -7.383409 -0.000000 0.000000 0.000000 0.000000 0.000000 0.000000 0.000000 0.613331 -7.450032 8.278897 85.287825 8.081184 -26.917427 162.329069 55.506574 168.756413 -14.813470 19.967875 -5.866624 -20.432147 16.447376 0.000000 0.000000 0.000000 0.000000 0.000000 0.000000 0.000000 
-1.652915 17.325208 24.640836 1.279891 20.413793 -12.394207 -30.927687 34.540227 5.750221 -15.741458 9.594222 -18.993215 -69.363530 29.011012 -60.451018 143.613336 88.264619 82.406035 0.000000 0.000000 0.000000 4.019515 -54.435855 -10.606480 34.878407 42.544636 -23.320215 45.666387 -30.337799 62.198988 35.830216 8.320693 -85.908338 0.000000 0.000000 0.000000 12.502958 5.309798 28.227122 -3.588497 -0.109232 10.154392 0.258905 -17.165851 5.448544 -2.161794 7.922599 -15.362922 -1.161608 2.677766 -58.099946 0.000000 0.000000 0.000000 -8.603988 -38.083389 -29.105259 28.806399 -21.215490 14.173638 -1.979889 28.403950 -3.020923 -11.628375 -6.957354 -1.527906 -11.767960 -6.960642 0.000000 0.000000 0.000000 0.000000 0.000000 0.000000 0.000000 0.334248 -7.227267 8.443211 85.012354 7.981251 -26.903728 162.145662 55.546141 168.916085 -14.930880 20.030486 -5.792717 -20.448014 16.554519 0.000000 0.000000 0.000000 0.000000 0.000000 0.000000 0.000000 
-1.670689 17.347930 24.812668 1.027802 20.102885 -11.784037 -31.326767 32.794356 7.039818 -14.058520 8.768797 -18.205732 -57.684813 23.247769 -56.940135 155.751493 71.468810 81.374601 0.000000 0.000000 0.000000 4.895677 -52.422226 -11.104636 33.357106 42.188626 -24.504645 47.260642 -31.099359 62.024331 35.950180 8.890064 -86.892919 0.000000 0.000000 0.000000 12.310119 5.296844 28.157718 -3.425899 -0.152468 9.581519 0.564139 -17.129079 5.169501 -2.117878 8.038774 -15.163758 -1.018713 2.834686 -57.755055 0.000000 0.000000 0.000000 -8.061443 -38.178535 -29.614980 28.270730 -21.187122 13.039912 -0.920091 28.977632 -2.932588 -11.712851 -6.601277 -1.482802 -11.850303 -6.602905 0.000000 0.000000 0.000000 0.000000 0.000000 0.000000 0.000000 0.040898 -7.031580 8.615433 84.694490 7.842949 -26.920506 161.870984 55.569533 169.193315 -15.064594 20.004999 -5.657361 -20.407685 16.607163 0.000000 0.000000 0.000000 0.000000 0.000000 0.000000 0.000000 
